<svg xmlns="http://www.w3.org/2000/svg" viewBox="0 0 333.33 58.7"><defs><style>.cls-1{fill:#1d1d1b;}</style></defs><title>VAORRA_Wordmark</title><g id="Ebene_5" data-name="Ebene 5"><polygon class="cls-1" points="35.7 42.61 15.92 8.35 7.71 8.35 31.59 49.73 35.7 42.61"/><polygon class="cls-1" points="45.32 26.05 55.53 8.35 47.32 8.35 41.21 18.94 45.32 26.05"/><path class="cls-1" d="M224.43,50.35,215.86,35.5l.64-.28a14,14,0,0,0-5.64-26.87H176.17l6.94,7.05h27.75a7,7,0,0,1,1.83,13.72c-.26.07-.53.12-.8.17l-.14,0a6.88,6.88,0,0,1-.89.06H204.1l12.11,21Z"/><polygon class="cls-1" points="301.74 8.98 277.85 50.35 286.07 50.35 301.74 23.21 301.74 8.98"/><polygon class="cls-1" points="318.06 37.25 309.84 37.25 317.4 50.35 325.62 50.35 318.06 37.25"/><polygon class="cls-1" points="86.36 8.98 62.48 50.35 70.7 50.35 86.36 23.21 86.36 8.98"/><polygon class="cls-1" points="102.69 37.25 94.47 37.25 102.03 50.35 110.25 50.35 102.69 37.25"/><path class="cls-1" d="M254,35.22a14,14,0,0,0-5.64-26.87h-18.9l4.07,7.05h14.83a7,7,0,0,1,1.83,13.72c-.26.07-.53.12-.8.17l-.14,0a7,7,0,0,1-.89.06H241.6l12.11,21h8.22L253.36,35.5Z"/><path class="cls-1" d="M144.72,8.35a21,21,0,0,0-5.59,41.22V42.12a13.95,13.95,0,1,1,10.44.3v7.34a21,21,0,0,0-4.85-41.41Z"/></g></svg>